 http://kastatic.com/i2/u/1813980/0aq32UMZvX.gif

Cover 
http://www.shotpix.com/images/12809408053163164719.jpg

General
Complete name                            : Darude - Sandstorm [Music Video] (720x480) [Sbyky].avi
Format                                   : AVI
Format/Info                              : Audio Video Interleave
File size                                : 59.0 MiB
Duration                                 : 3mn 50s
Overall bit rate                         : 2 151 Kbps
Writing application                      : Lavf51.12.1

Video
ID                                       : 0
Format                                   : MPEG-4 Visual
Format profile                           : Simple@L1
Format settings, BVOP                    : No
Format settings, QPel                    : No
Format settings, GMC                     : No warppoints
Format settings, Matrix                  : Default (H.263)
Codec ID                                 : DX50
Codec ID/Hint                            : DivX 5
Duration                                 : 3mn 50s
Bit rate                                 : 1 978 Kbps
Width                                    : 720 pixels
Height                                   : 480 pixels
Display aspect ratio                     : 4:3
Frame rate                               : 29.970 fps
Standard                                 : NTSC
Color space                              : YUV
Chroma subsampling                       : 4:2:0
Bit depth                                : 8 bits
Scan type                                : Progressive
Compression mode                         : Lossy
Bits/(Pixel*Frame)                       : 0.191
Stream size                              : 54.3 MiB (92%)
Writing library                          : Lavc51.40.4

Audio
ID                                       : 1
Format                                   : MPEG Audio
Format version                           : Version 1
Format profile                           : Layer 3
Mode                                     : Joint stereo
Mode extension                           : MS Stereo
Codec ID                                 : 55
Codec ID/Hint                            : MP3
Duration                                 : 3mn 50s
Bit rate mode                            : Constant
Bit rate                                 : 160 Kbps
Channel(s)                               : 2 channels
Sampling rate                            : 44.1 KHz
Compression mode                         : Lossy
Stream size                              : 4.39 MiB (7%)
Alignment                                : Aligned on interleaves
Interleave, duration                     : 26 ms (0.78 video frame)

Shared By Sbyky 
http://kastatic.com/i2/u/1813980/bQg62viaEG.gif